<svg width="14" height="14" viewBox="0 0 14 14" xmlns="http://www.w3.org/2000/svg">
    <path fill="#2A6570" d="M5.224 0c2.887 0 5.224 2.31 5.224 5.156a5.094 5.094 0 0 1-1.177 3.26L14 13.092l-.941.909-4.744-4.687a5.247 5.247 0 0 1-3.09.998C2.336 10.311 0 8.001 0 5.156 0 2.31 2.337 0 5.224 0zm0 1.293c-2.152 0-3.9 1.728-3.9 3.863s1.748 3.863 3.9 3.863c2.153 0 3.9-1.728 3.9-3.863 0-2.136-1.747-3.863-3.9-3.863zm0 .976c1.618 0 2.927 1.294 2.927 2.887v.484h-.993v-.484c0-1.06-.867-1.918-1.934-1.918h-.496v-.97z"/>
</svg>